<svg width="32" height="32" viewBox="0 0 32 32" fill="none" xmlns="http://www.w3.org/2000/svg">
<path d="M25.6533 7.43891H25.12L20.6133 2.93224C20.4372 2.75912 20.2002 2.66211 19.9533 2.66211C19.7064 2.66211 19.4693 2.75912 19.2933 2.93224C18.9333 3.29224 18.9333 3.87891 19.2933 4.25224L22.48 7.43891H9.51996L12.7066 4.25224C13.0666 3.89224 13.0666 3.30558 12.7066 2.93224C12.5306 2.75912 12.2935 2.66211 12.0466 2.66211C11.7997 2.66211 11.5627 2.75912 11.3866 2.93224L6.89329 7.43891H6.35996C5.15996 7.43891 2.66663 7.43891 2.66663 10.8522C2.66663 12.1456 2.93329 12.9989 3.49329 13.5589C3.81329 13.8922 4.19996 14.0656 4.61329 14.1589C4.99996 14.2522 5.41329 14.2656 5.81329 14.2656H26.1866C26.6 14.2656 26.9866 14.2389 27.36 14.1589C28.48 13.8922 29.3333 13.0922 29.3333 10.8522C29.3333 7.43891 26.84 7.43891 25.6533 7.43891ZM25.4 16.0002H6.49329C5.66663 16.0002 5.03996 16.7336 5.17329 17.5469L6.29329 24.4002C6.66663 26.6936 7.66663 29.3336 12.1066 29.3336H19.5866C24.08 29.3336 24.88 27.0802 25.36 24.5602L26.7066 17.5869C26.7447 17.394 26.7395 17.1951 26.6914 17.0045C26.6433 16.8139 26.5536 16.6363 26.4286 16.4845C26.3036 16.3327 26.1465 16.2106 25.9687 16.1269C25.7908 16.0431 25.5966 15.9999 25.4 16.0002ZM14.1466 24.6002C14.1534 24.7261 14.1344 24.852 14.0909 24.9704C14.0474 25.0887 13.9802 25.1969 13.8935 25.2883C13.8068 25.3798 13.7024 25.4527 13.5865 25.5025C13.4707 25.5523 13.346 25.578 13.22 25.578C13.0939 25.578 12.9692 25.5523 12.8534 25.5025C12.7376 25.4527 12.6331 25.3798 12.5464 25.2883C12.4597 25.1969 12.3925 25.0887 12.349 24.9704C12.3055 24.852 12.2865 24.7261 12.2933 24.6002V20.2002C12.2933 19.6936 12.7066 19.2669 13.2266 19.2669C13.4718 19.2704 13.7058 19.3703 13.878 19.5449C14.0501 19.7196 14.1467 19.955 14.1466 20.2002V24.6002ZM19.8533 24.6002C19.8533 25.1202 19.44 25.5336 18.92 25.5336C18.4133 25.5336 17.9866 25.1202 17.9866 24.6002V20.2002C17.9866 19.6936 18.4133 19.2669 18.92 19.2669C19.44 19.2669 19.8533 19.6936 19.8533 20.2002V24.6002Z" fill="black"/>
</svg>
