<svg width="150" height="150" viewBox="0 0 150 150" fill="none" xmlns="http://www.w3.org/2000/svg">
<g clip-path="url(#clip0_1561_3462)">
<path d="M35.9406 74.5898C35.9406 52.7746 53.6253 35.0898 75.4406 35.0898C97.2558 35.0898 114.941 52.7746 114.941 74.5898C114.941 96.4051 97.2558 114.09 75.4406 114.09C53.6253 114.09 35.9406 96.4051 35.9406 74.5898Z" stroke="white"/>
<path d="M25.5823 62.5789C27.4068 62.9197 28.6621 63.911 29.3483 65.5529C29.9469 66.9669 30.0685 68.6254 29.713 70.5285C29.4986 71.6766 28.9918 72.9085 28.1926 74.2242L24.4459 73.4999L24.5781 72.7922C25.8382 72.9299 26.8038 72.7277 27.4747 72.1857C27.7822 71.9339 28.0767 71.5331 28.3584 70.9835C28.6401 70.4339 28.8172 69.9217 28.8896 69.4469C29.0766 68.3587 28.9633 67.3528 28.5499 66.4292C28.1177 65.5184 27.4171 64.9562 26.4478 64.7426C25.4255 64.5517 24.5401 64.7607 23.7915 65.3696C23.0459 65.9628 22.4849 66.8753 22.1083 68.1071C21.0737 71.3808 19.361 72.7943 16.9704 72.3478C15.3032 72.0364 14.1561 71.163 13.529 69.7274C12.9767 68.5012 12.846 67.1095 13.1368 65.5525C13.222 65.0963 13.3941 64.5669 13.6532 63.9643C13.8965 63.3586 14.0344 62.9693 14.0667 62.7963C14.1019 62.6076 14.0075 62.4597 13.7833 62.3528L13.9067 61.6922L18.1296 62.4809L17.9974 63.1887C16.813 63.0814 15.9055 63.2781 15.2748 63.7788C14.6471 64.2638 14.2324 65.0897 14.0308 66.2566C13.6333 68.5587 14.452 69.8835 16.4868 70.231C18.3014 70.5374 19.5666 69.4716 20.2824 67.0336C21.3149 63.5967 23.0816 62.1119 25.5823 62.5789Z" fill="white"/>
<path d="M40.3777 42.8986L40.9226 43.2919L37.439 48.1179L36.8941 47.7246L37.7229 46.5765C37.9101 46.317 37.8686 46.0601 37.5984 45.8058C37.0441 45.4255 35.5475 44.355 33.1086 42.5945C32.3172 42.0232 31.5317 41.7719 30.752 41.8406C29.9594 41.8999 29.3476 42.2279 28.9169 42.8247C28.4955 43.4084 28.3641 44.1918 28.5229 45.1746C28.686 46.0422 28.8973 46.5696 29.1567 46.7569L34.2552 50.4372C34.5817 50.6137 34.8385 50.5722 35.0258 50.3128L35.8687 49.1452L36.4135 49.5385L32.9158 54.384L32.3709 53.9906L33.1997 52.8425C33.3776 52.596 33.3408 52.3327 33.0893 52.0524L21.5799 43.8036C21.1295 43.4982 20.7497 43.5595 20.4407 43.9876L19.7664 44.9217L19.2216 44.5284L21.5534 41.2981L27.8778 45.8633C27.0991 44.2357 27.1921 42.7537 28.1567 41.4175C29.7206 39.251 31.669 39.0394 34.002 40.7827C34.797 41.3762 36.3891 42.5058 38.7783 44.1712C39.1048 44.3477 39.3617 44.3062 39.549 44.0467L40.3777 42.8986Z" fill="white"/>
<path d="M53.5366 24.0992C54.908 24.528 55.9739 25.4824 56.7342 26.9626C57.4872 28.4285 57.6143 29.9191 57.1155 31.4344C56.6168 32.9497 55.5564 34.142 53.9343 35.0111C52.6465 35.6906 51.3203 35.8052 49.9558 35.3549C48.6267 34.8685 47.5747 33.8709 46.7997 32.3623C46.0175 30.8395 45.8546 29.3493 46.3111 27.8917C46.7675 26.4341 47.8141 25.2849 49.4508 24.4442C50.8029 23.7497 52.1648 23.6347 53.5366 24.0992ZM54.4373 33.8894C55.3339 33.4288 55.8091 32.7081 55.8629 31.7271C55.9308 30.7389 55.6578 29.647 55.0437 28.4515C54.4223 27.2418 53.5534 26.3031 52.437 25.6354C51.3137 24.9893 50.2894 24.9038 49.3643 25.379C47.4145 26.3805 47.0793 28.1266 48.3586 30.6172C49.0385 31.9408 49.8543 32.9338 50.8061 33.5961C52.0029 34.4203 53.2133 34.5181 54.4373 33.8894Z" fill="white"/>
<path d="M81.2953 19.7429C81.316 21.5347 80.7025 23.1339 79.4547 24.5405C78.2229 25.9468 76.7506 26.6199 75.0378 26.5598C73.8697 26.5573 73.0194 26.3671 72.487 25.9893L72.4789 31.5097C72.563 31.8608 72.749 32.0346 73.037 32.0313L74.4529 32.0149L74.4607 32.6869L68.5331 32.7555L68.5253 32.0836L69.9412 32.0672C70.2292 32.0638 70.4191 31.8856 70.5111 31.5325L70.3404 16.7975C70.2861 16.2541 70.003 15.9854 69.491 15.9913L68.3631 16.0044L68.3553 15.3324L72.3151 15.2865C72.3252 16.1665 72.3509 16.9982 72.392 17.7818C72.6418 17.2509 72.9645 16.7911 73.36 16.4025C74.2936 15.4956 75.4881 15.0098 76.9434 14.9449C78.2713 14.9295 79.3246 15.3814 80.1033 16.3004C80.8818 17.2035 81.2791 18.3509 81.2953 19.7429ZM78.2252 24.0747C78.9193 23.2186 79.2588 22.1346 79.2436 20.8227C79.2282 19.4948 78.9604 18.4738 78.4401 17.7598C77.8703 16.9183 77.0255 16.5041 75.9055 16.517C74.7856 16.53 73.6188 17.3276 72.405 18.9097L72.4642 24.0214C73.3073 24.9717 74.4165 25.4149 75.7918 25.351C76.7994 25.3073 77.6105 24.8819 78.2252 24.0747Z" fill="white"/>
<path d="M108.234 42.8087L107.789 43.2801L103.53 39.2614L103.974 38.79L105.004 39.7618C105.225 39.9704 105.48 39.9573 105.767 39.7226L109.671 35.5854C110.307 34.9104 110.627 34.222 110.629 33.5202C110.642 32.8067 110.375 32.192 109.829 31.6759C109.282 31.1599 108.605 30.8626 107.799 30.7842C107.006 30.7393 106.455 30.8798 106.148 31.2057L101.717 35.9015C101.5 36.2021 101.507 36.4622 101.74 36.6818L102.752 37.6371L102.308 38.1084L98.0482 34.0897L98.4929 33.6184L99.5054 34.5737C99.7382 34.7933 99.9983 34.7857 100.286 34.551L105.984 28.511C106.346 28.1043 106.335 27.7198 105.951 27.3575L105.13 26.5834L105.575 26.112L108.438 28.8132L107.993 29.2845C107.85 29.4132 107.69 29.5706 107.515 29.7568L107.185 30.1059C107.487 29.9727 107.995 29.9239 108.709 29.9598C109.742 30.0542 110.607 30.4309 111.306 31.0897C113.179 32.8575 113.177 34.7364 111.3 36.7265L107.199 41.0732C106.981 41.3738 106.988 41.6339 107.221 41.8535L108.234 42.8087Z" fill="white"/>
<path d="M130.233 60.585C129.625 61.8866 128.536 62.8151 126.968 63.3703C125.414 63.9202 123.92 63.8465 122.485 63.1493C121.05 62.4521 120.011 61.2415 119.367 59.5177C118.866 58.1504 118.93 56.8209 119.559 55.529C120.219 54.277 121.348 53.368 122.947 52.8022C124.561 52.2309 126.06 52.2691 127.443 52.9166C128.826 53.5642 129.825 54.7552 130.439 56.4898C130.946 57.9227 130.877 59.2878 130.233 60.585ZM120.411 60.1664C120.747 61.1166 121.398 61.6841 122.363 61.8687C123.333 62.0684 124.451 61.9441 125.718 61.4956C127.001 61.0418 128.047 60.3065 128.858 59.2896C129.649 58.2629 129.871 57.2593 129.524 56.2789C128.793 54.2126 127.107 53.6465 124.468 54.5807C123.065 55.0772 121.972 55.7527 121.188 56.6072C120.211 57.6829 119.952 58.8693 120.411 60.1664Z" fill="white"/>
<path d="M128.743 95.673L128.083 95.5471L128.2 94.9341C128.283 94.4941 128.016 94.0603 127.397 93.6328L118.994 88.2429L119.215 87.0878L127.318 85.8481L120.289 81.4533L120.519 80.251L130.698 79.0164C131.062 78.988 131.286 78.7538 131.37 78.3138L131.514 77.5594L132.174 77.6853L131.135 83.1311L130.475 83.0052L130.682 81.9207C130.757 81.5278 130.637 81.3014 130.323 81.2414C130.228 81.2234 130.156 81.2178 130.106 81.2245L122.482 81.8715L130.702 86.8111L130.553 87.5891L121.187 88.6611L127.622 92.454C127.868 92.615 128.078 92.712 128.251 92.7449C128.486 92.7899 128.63 92.6788 128.681 92.4116L128.906 91.2329L129.566 91.3588L128.743 95.673Z" fill="white"/>
</g>
<defs>
<clipPath id="clip0_1561_3462">
<rect width="150" height="150" fill="white"/>
</clipPath>
</defs>
</svg>
