<svg width="80" height="117" viewBox="0 0 80 117" fill="none" xmlns="http://www.w3.org/2000/svg">
<path d="M20.8189 18.4422L23.1185 22.7376L22.4804 23.0712C21.7727 21.9246 20.9941 21.2122 20.1446 20.9341C19.2877 20.6419 18.1459 20.8235 16.7193 21.479L15.7187 21.9479L22.6901 35.2837L24.6894 34.2385L25.034 34.8978L19.1212 37.9888L18.7766 37.3295L20.7546 36.2955L13.7832 22.9597L12.8483 23.5026C11.5026 24.2783 10.6977 25.0872 10.4338 25.9293C10.1767 26.7498 10.3141 27.8244 10.8462 29.1531L10.2294 29.4755L8.01488 25.1356L20.8189 18.4422Z" fill="#613134"/>
<path d="M66.2202 21.4403C67.9643 22.352 69.0828 23.4243 69.5758 24.6569C70.0688 25.8896 69.9743 27.1582 69.2923 28.4627C68.6104 29.7672 67.474 30.4731 65.8833 30.5803C64.4931 30.684 62.9189 30.2763 61.1606 29.3571L59.374 28.4231L56.3941 34.1231L58.3721 35.1572L58.0274 35.8166L52.1147 32.7254L52.4594 32.0661L54.4586 33.1113L61.4303 19.7757L59.4311 18.7305L59.7757 18.0712L66.2202 21.4403ZM64.5096 29.3746C65.6366 29.1875 66.5046 28.4768 67.1137 27.2425C67.7229 26.0083 67.9063 24.9667 67.664 24.1179C67.4359 23.2764 66.7546 22.5592 65.6203 21.9662L63.3658 20.7876L59.6743 27.8488L61.5034 28.8051C62.5668 29.361 63.5689 29.5509 64.5096 29.3746Z" fill="#613134"/>
<path d="M44.3179 17.5159C45.6635 19.0551 46.3639 21.0964 46.4189 23.6398C46.4736 26.1673 45.8309 28.2697 44.4909 29.947C43.1509 31.6244 41.4491 32.4854 39.3856 32.5301C37.3381 32.5744 35.5603 31.7727 34.0523 30.1249C32.576 28.4605 31.8269 26.3882 31.8053 23.9081C31.7833 21.412 32.443 19.3572 33.7844 17.7438C35.1414 16.1141 36.8997 15.2758 39.0592 15.2291C41.2347 15.182 42.9876 15.9443 44.3179 17.5159ZM39.3914 31.6898C40.8791 31.6576 41.9914 30.9213 42.7284 29.4811C43.4654 28.0408 43.8085 26.1449 43.7576 23.7935C43.7064 21.426 43.3303 19.5777 42.6294 18.2486C41.7956 16.6983 40.5469 15.9411 38.8833 15.9771C37.2357 16.0127 36.0441 16.7827 35.3085 18.287C34.696 19.5645 34.4169 21.459 34.4712 23.9704C34.5841 29.1852 36.2242 31.7583 39.3914 31.6898Z" fill="#613134"/>
<line x1="38.5" y1="117" x2="38.5" y2="67" stroke="#613134"/>
<circle cx="39" cy="67" r="29.5" stroke="#613134"/>
</svg>
