<svg width="32" height="32" viewBox="0 0 32 32" fill="none" xmlns="http://www.w3.org/2000/svg">
<path d="M16 16.0003C17.7681 16.0003 19.4638 15.2979 20.714 14.0477C21.9643 12.7975 22.6667 11.1018 22.6667 9.33366C22.6667 7.56555 21.9643 5.86986 20.714 4.61961C19.4638 3.36937 17.7681 2.66699 16 2.66699C14.2319 2.66699 12.5362 3.36937 11.286 4.61961C10.0357 5.86986 9.33334 7.56555 9.33334 9.33366C9.33334 11.1018 10.0357 12.7975 11.286 14.0477C12.5362 15.2979 14.2319 16.0003 16 16.0003ZM16 19.3337C9.32 19.3337 3.88 23.8137 3.88 29.3337C3.88 29.707 4.17334 30.0003 4.54667 30.0003H27.4533C27.8267 30.0003 28.12 29.707 28.12 29.3337C28.12 23.8137 22.68 19.3337 16 19.3337Z" fill="black"/>
</svg>
