<svg width="36" height="36" viewBox="0 0 36 36" fill="none" xmlns="http://www.w3.org/2000/svg">
<path d="M31.6055 7.845C29.1905 7.605 26.7755 7.425 24.3455 7.29V7.275L24.0155 5.325C23.7905 3.945 23.4605 1.875 19.9505 1.875H16.0205C12.5255 1.875 12.1955 3.855 11.9555 5.31L11.6405 7.23C10.2455 7.32 8.85048 7.41 7.45548 7.545L4.39548 7.845C3.76548 7.905 3.31548 8.46 3.37548 9.075C3.43548 9.69 3.97548 10.14 4.60548 10.08L7.66548 9.78C15.5255 9 23.4455 9.3 31.3955 10.095H31.5155C32.0855 10.095 32.5805 9.66 32.6405 9.075C32.6631 8.77536 32.5674 8.47879 32.3739 8.24887C32.1804 8.01895 31.9046 7.87396 31.6055 7.845ZM28.8455 12.21C28.4855 11.835 27.9905 11.625 27.4805 11.625H8.52048C8.01048 11.625 7.50048 11.835 7.15548 12.21C6.81048 12.585 6.61548 13.095 6.64548 13.62L7.57548 29.01C7.74048 31.29 7.95048 34.14 13.1855 34.14H22.8155C28.0505 34.14 28.2605 31.305 28.4255 29.01L29.3555 13.635C29.3855 13.095 29.1905 12.585 28.8455 12.21ZM20.4905 26.625H15.4955C14.8805 26.625 14.3705 26.115 14.3705 25.5C14.3705 24.885 14.8805 24.375 15.4955 24.375H20.4905C21.1055 24.375 21.6155 24.885 21.6155 25.5C21.6155 26.115 21.1055 26.625 20.4905 26.625ZM21.7505 20.625H14.2505C13.6355 20.625 13.1255 20.115 13.1255 19.5C13.1255 18.885 13.6355 18.375 14.2505 18.375H21.7505C22.3655 18.375 22.8755 18.885 22.8755 19.5C22.8755 20.115 22.3655 20.625 21.7505 20.625Z" fill="#9D9D9D"/>
</svg>
