<svg width="108" height="108" viewBox="0 0 108 108" fill="none" xmlns="http://www.w3.org/2000/svg">
<path d="M45.0746 14.4704C53.5934 12.5457 62.5061 13.4263 70.4835 16.9808C72.7537 17.9923 75.4139 16.972 76.4255 14.7019C77.437 12.4317 76.4167 9.77145 74.1465 8.75994C64.3963 4.41551 53.503 3.33925 43.0911 5.69167C32.6793 8.04408 23.3068 13.6991 16.3715 21.8135C9.43617 29.9278 5.30963 40.0665 4.6073 50.7177C3.90497 61.3689 6.66447 71.9617 12.4743 80.9164C18.284 89.8711 26.8328 96.7079 36.8456 100.407C46.8584 104.106 57.7988 104.47 68.035 101.443C78.2713 98.4167 87.2549 92.1624 93.6462 83.613C100.037 75.0636 103.494 64.6772 103.5 54.0029V49.8604C103.5 47.3751 101.485 45.3604 99 45.3604C96.5147 45.3604 94.5 47.3751 94.5 49.8604V53.9978C94.495 62.7313 91.667 71.2292 86.4378 78.2242C81.2086 85.2191 73.8583 90.3363 65.4832 92.8126C57.1081 95.2888 48.1569 94.9915 39.9646 91.9649C31.7723 88.9382 24.7779 83.3445 20.0244 76.0179C15.2709 68.6913 13.0132 60.0245 13.5878 51.3099C14.1624 42.5953 17.5387 34.2999 23.213 27.6609C28.8874 21.022 36.5558 16.3951 45.0746 14.4704Z" fill="#613134"/>
<path d="M102.184 21.1808C103.94 19.4226 103.939 16.5733 102.18 14.8169C100.422 13.0604 97.5729 13.0618 95.8164 14.82L53.9984 56.6799L43.682 46.3635C41.9246 44.6061 39.0754 44.6061 37.318 46.3635C35.5607 48.1208 35.5607 50.9701 37.318 52.7274L50.818 66.2274C51.6622 67.0716 52.8073 67.5457 54.0011 67.5454C55.195 67.5451 56.3398 67.0704 57.1836 66.2258L102.184 21.1808Z" fill="#613134"/>
</svg>
