<svg width="158" height="133" viewBox="0 0 158 133" fill="none" xmlns="http://www.w3.org/2000/svg">
<path d="M38.9407 78.46C38.9407 56.6447 56.6254 38.96 78.4407 38.96C100.256 38.96 117.941 56.6447 117.941 78.46C117.941 100.275 100.256 117.96 78.4407 117.96C56.6254 117.96 38.9407 100.275 38.9407 78.46Z" stroke="white"/>
<path d="M28.4293 64.7021C30.2538 65.0428 31.5091 66.0342 32.1953 67.6761C32.7939 69.09 32.9155 70.7485 32.56 72.6516C32.3456 73.7997 31.8388 75.0316 31.0396 76.3473L27.2929 75.6231L27.4251 74.9153C28.6852 75.053 29.6508 74.8508 30.3217 74.3088C30.6292 74.057 30.9237 73.6563 31.2054 73.1066C31.4871 72.557 31.6642 72.0448 31.7366 71.57C31.9236 70.4819 31.8103 69.476 31.3969 68.5524C30.9648 67.6415 30.2641 67.0793 29.2948 66.8657C28.2725 66.6748 27.3871 66.8838 26.6385 67.4927C25.8929 68.0859 25.3319 68.9984 24.9553 70.2302C23.9207 73.5039 22.208 74.9175 19.8174 74.4709C18.1502 74.1596 17.0031 73.2861 16.376 71.8506C15.8237 70.6243 15.693 69.2327 15.9838 67.6756C16.069 67.2195 16.2412 66.6901 16.5002 66.0874C16.7435 65.4818 16.8814 65.0925 16.9137 64.9195C16.9489 64.7307 16.8545 64.5829 16.6303 64.4759L16.7537 63.8153L20.9766 64.6041L20.8445 65.3118C19.66 65.2045 18.7525 65.4012 18.1218 65.902C17.4941 66.387 17.0794 67.2129 16.8778 68.3797C16.4803 70.6818 17.299 72.0067 19.3338 72.3542C21.1484 72.6605 22.4136 71.5947 23.1294 69.1567C24.1619 65.7199 25.9286 64.235 28.4293 64.7021Z" fill="white"/>
<path d="M42.6792 47.5715L43.224 47.9648L39.7404 52.7908L39.1955 52.3975L40.0243 51.2494C40.2116 50.9899 40.1701 50.733 39.8998 50.4787C39.3456 50.0984 37.849 49.0279 35.41 47.2674C34.6186 46.6961 33.8331 46.4448 33.0534 46.5135C32.2608 46.5728 31.6491 46.9008 31.2183 47.4976C30.7969 48.0813 30.6656 48.8647 30.8244 49.8475C30.9874 50.7151 31.1987 51.2425 31.4582 51.4298L36.5566 55.1101C36.8831 55.2866 37.14 55.2451 37.3273 54.9856L38.1701 53.8181L38.715 54.2114L35.2173 59.0569L34.6724 58.6635L35.5012 57.5154C35.6791 57.2689 35.6423 57.0056 35.3907 56.7253L23.8814 48.4765C23.4309 48.1711 23.0512 48.2324 22.7421 48.6605L22.0679 49.5946L21.523 49.2013L23.8548 45.971L30.1792 50.5362C29.4006 48.9086 29.4935 47.4266 30.4581 46.0904C32.022 43.9239 33.9704 43.7123 36.3035 45.4556C37.0984 46.0491 38.6905 47.1787 41.0797 48.8441C41.4062 49.0206 41.6631 48.9791 41.8504 48.7196L42.6792 47.5715Z" fill="white"/>
<path d="M54.3751 27.8021C55.7465 28.2309 56.8124 29.1853 57.5727 30.6655C58.3257 32.1314 58.4528 33.622 57.954 35.1373C57.4553 36.6526 56.3949 37.8449 54.7728 38.714C53.485 39.3935 52.1588 39.5081 50.7943 39.0578C49.4652 38.5714 48.4132 37.5738 47.6382 36.0652C46.856 34.5424 46.6931 33.0521 47.1496 31.5945C47.606 30.1369 48.6526 28.9878 50.2893 28.1471C51.6413 27.4526 53.0033 27.3376 54.3751 27.8021ZM55.2758 37.5923C56.1724 37.1317 56.6476 36.4109 56.7014 35.43C56.7693 34.4418 56.4963 33.3499 55.8822 32.1544C55.2608 30.9446 54.3919 30.0059 53.2755 29.3383C52.1522 28.6921 51.1279 28.6067 50.2028 29.0819C48.253 30.0834 47.9178 31.8295 49.1971 34.3201C49.877 35.6437 50.6928 36.6367 51.6446 37.299C52.8414 38.1232 54.0518 38.221 55.2758 37.5923Z" fill="white"/>
<path d="M81.5555 25.6124C81.5762 27.4042 80.9627 29.0035 79.7149 30.41C78.4831 31.8164 77.0108 32.4895 75.298 32.4293C74.1299 32.4268 73.2796 32.2366 72.7472 31.8588L72.7392 37.3792C72.8232 37.7303 73.0093 37.9042 73.2972 37.9008L74.7131 37.8844L74.7209 38.5564L68.7933 38.625L68.7855 37.9531L70.2014 37.9367C70.4894 37.9333 70.6794 37.7551 70.7713 37.402L70.6006 22.667C70.5463 22.1236 70.2632 21.8549 69.7512 21.8608L68.6233 21.8739L68.6155 21.2019L72.5753 21.1561C72.5855 22.036 72.6111 22.8678 72.6522 23.6513C72.902 23.1204 73.2247 22.6606 73.6203 22.272C74.5538 21.3652 75.7483 20.8793 77.2036 20.8144C78.5315 20.7991 79.5848 21.2509 80.3635 22.1699C81.1421 23.073 81.5394 24.2205 81.5555 25.6124ZM78.4854 29.9442C79.1796 29.0881 79.519 28.0041 79.5039 26.6922C79.4885 25.3643 79.2206 24.3433 78.7003 23.6293C78.1305 22.7878 77.2857 22.3736 76.1658 22.3866C75.0458 22.3995 73.879 23.1971 72.6652 24.7793L72.7244 29.8909C73.5675 30.8412 74.6767 31.2844 76.0521 31.2205C77.0596 31.1768 77.8707 30.7514 78.4854 29.9442Z" fill="white"/>
<path d="M113.469 46.8257L113.025 47.297L108.765 43.2783L109.21 42.807L110.24 43.7787C110.461 43.9873 110.715 43.9743 111.003 43.7395L114.906 39.6023C115.543 38.9273 115.862 38.2389 115.865 37.5371C115.878 36.8237 115.611 36.2089 115.064 35.6929C114.517 35.1768 113.841 34.8795 113.035 34.8011C112.241 34.7563 111.691 34.8968 111.383 35.2226L106.953 39.9185C106.735 40.2191 106.743 40.4792 106.975 40.6988L107.988 41.654L107.543 42.1254L103.284 38.1067L103.728 37.6353L104.741 38.5906C104.974 38.8102 105.234 38.8026 105.521 38.5679L111.22 32.5279C111.582 32.1213 111.57 31.7368 111.186 31.3744L110.366 30.6003L110.811 30.129L113.674 32.8301L113.229 33.3014C113.085 33.4301 112.926 33.5875 112.75 33.7737L112.421 34.1229C112.723 33.9896 113.23 33.9409 113.945 33.9767C114.977 34.0712 115.843 34.4478 116.541 35.1066C118.415 36.8744 118.413 38.7533 116.535 40.7434L112.434 45.0901C112.216 45.3907 112.224 45.6508 112.457 45.8704L113.469 46.8257Z" fill="white"/>
<path d="M131.833 61.2989C131.225 62.6005 130.136 63.5289 128.567 64.0842C127.014 64.634 125.52 64.5604 124.085 63.8632C122.65 63.166 121.61 61.9554 120.966 60.2315C120.465 58.8643 120.529 57.5348 121.158 56.2428C121.818 54.9909 122.948 54.0819 124.547 53.516C126.161 52.9448 127.659 52.983 129.043 53.6305C130.426 54.2781 131.425 55.4691 132.038 57.2037C132.546 58.6366 132.477 60.0016 131.833 61.2989ZM122.011 60.8803C122.347 61.8305 122.997 62.3979 123.962 62.5826C124.933 62.7823 126.051 62.6579 127.318 62.2095C128.6 61.7557 129.647 61.0204 130.458 60.0034C131.249 58.9767 131.471 57.9732 131.124 56.9928C130.392 54.9264 128.707 54.3604 126.067 55.2946C124.665 55.7911 123.571 56.4666 122.788 57.3211C121.81 58.3967 121.551 59.5831 122.011 60.8803Z" fill="white"/>
<path d="M133.575 95.6332L132.915 95.5073L133.032 94.8944C133.116 94.4543 132.848 94.0205 132.229 93.593L123.826 88.2032L124.047 87.048L132.15 85.8084L125.121 81.4136L125.351 80.2113L135.53 78.9766C135.894 78.9483 136.118 78.7141 136.202 78.274L136.346 77.5196L137.006 77.6455L135.967 83.0913L135.307 82.9654L135.514 81.881C135.589 81.4881 135.469 81.2616 135.155 81.2017C135.06 81.1837 134.988 81.1781 134.938 81.1848L127.314 81.8318L135.534 86.7714L135.386 87.5493L126.019 88.6214L132.454 92.4143C132.7 92.5752 132.91 92.6722 133.083 92.7052C133.318 92.7502 133.462 92.639 133.513 92.3719L133.738 91.1931L134.398 91.319L133.575 95.6332Z" fill="white"/>
<line x1="78.5001" y1="132.019" x2="78.5001" y2="72.0186" stroke="white"/>
</svg>
